<?xml version="1.0" encoding="UTF-8" standalone="no"?>
<!DOCTYPE svg PUBLIC "-//W3C//DTD SVG 1.1//EN"
 "http://www.w3.org/Graphics/SVG/1.1/DTD/svg11.dtd">
<!-- Generated by graphviz version 2.40.1 (20161225.0304)
 -->
<!-- Title: G Pages: 1 -->
<svg width="374pt" height="907pt"
 viewBox="0.00 0.00 374.30 907.04" xmlns="http://www.w3.org/2000/svg" xmlns:xlink="http://www.w3.org/1999/xlink">
<g id="graph0" class="graph" transform="scale(1 1) rotate(0) translate(4 903.0368)">
<title>G</title>
<polygon fill="#ffffff" stroke="transparent" points="-4,4 -4,-903.0368 370.2959,-903.0368 370.2959,4 -4,4"/>
<g id="clust1" class="cluster">
<title>cluster_1</title>
<polygon fill="none" stroke="#0000ff" points="13.4757,-403.255 13.4757,-624.055 155.4757,-624.055 155.4757,-403.255 13.4757,-403.255"/>
<text text-anchor="middle" x="84.4757" y="-607.455" font-family="Times,serif" font-size="14.00" fill="#000000">Plugins onRequest</text>
</g>
<g id="clust2" class="cluster">
<title>cluster_2</title>
<polygon fill="none" stroke="#0000ff" points="111.4757,-246.455 111.4757,-395.255 245.4757,-395.255 245.4757,-246.455 111.4757,-246.455"/>
<text text-anchor="middle" x="178.4757" y="-378.655" font-family="Times,serif" font-size="14.00" fill="#000000">Forward Query</text>
</g>
<g id="clust3" class="cluster">
<title>cluster_3</title>
<polygon fill="none" stroke="#0000ff" points="135.4757,-97.655 135.4757,-174.455 303.4757,-174.455 303.4757,-97.655 135.4757,-97.655"/>
<text text-anchor="middle" x="219.4757" y="-157.855" font-family="Times,serif" font-size="14.00" fill="#000000">Plugins onResponse</text>
</g>
<!-- autopilot -->
<g id="node1" class="node">
<title>autopilot</title>
<ellipse fill="#d3d3d3" stroke="#000000" cx="93.4757" cy="-573.255" rx="45.2439" ry="18"/>
<text text-anchor="middle" x="93.4757" y="-569.055" font-family="Times,serif" font-size="14.00" fill="#000000">autopilot</text>
</g>
<!-- configLoader -->
<g id="node2" class="node">
<title>configLoader</title>
<ellipse fill="#d3d3d3" stroke="#000000" cx="84.4757" cy="-501.255" rx="63.1035" ry="18"/>
<text text-anchor="middle" x="84.4757" y="-497.055" font-family="Times,serif" font-size="14.00" fill="#000000">configLoader</text>
</g>
<!-- autopilot&#45;&gt;configLoader -->
<g id="edge1" class="edge">
<title>autopilot&#45;&gt;configLoader</title>
<path fill="none" stroke="#000000" d="M91.2047,-555.0864C90.2421,-547.386 89.0975,-538.2293 88.0278,-529.6716"/>
<polygon fill="#000000" stroke="#000000" points="91.4908,-529.1569 86.7774,-519.6683 84.5449,-530.0252 91.4908,-529.1569"/>
</g>
<!-- recorder -->
<g id="node3" class="node">
<title>recorder</title>
<ellipse fill="#d3d3d3" stroke="#000000" cx="84.4757" cy="-429.255" rx="43.3969" ry="18"/>
<text text-anchor="middle" x="84.4757" y="-425.055" font-family="Times,serif" font-size="14.00" fill="#000000">recorder</text>
</g>
<!-- configLoader&#45;&gt;recorder -->
<g id="edge2" class="edge">
<title>configLoader&#45;&gt;recorder</title>
<path fill="none" stroke="#000000" d="M84.4757,-483.0864C84.4757,-475.386 84.4757,-466.2293 84.4757,-457.6716"/>
<polygon fill="#000000" stroke="#000000" points="87.9758,-457.6682 84.4757,-447.6683 80.9758,-457.6683 87.9758,-457.6682"/>
</g>
<!-- RealQuery -->
<g id="node4" class="node">
<title>RealQuery</title>
<ellipse fill="#d3d3d3" stroke="#000000" cx="175.4757" cy="-344.455" rx="52.7276" ry="18"/>
<text text-anchor="middle" x="175.4757" y="-340.255" font-family="Times,serif" font-size="14.00" fill="#000000">RealQuery</text>
</g>
<!-- recorder&#45;&gt;RealQuery -->
<g id="edge4" class="edge">
<title>recorder&#45;&gt;RealQuery</title>
<path fill="none" stroke="#000000" d="M102.4544,-412.5012C115.9516,-399.9236 134.6244,-382.5231 149.7085,-368.4667"/>
<polygon fill="#000000" stroke="#000000" points="152.2931,-370.8423 157.223,-361.4642 147.5209,-365.7211 152.2931,-370.8423"/>
</g>
<!-- Response -->
<g id="node12" class="node">
<title>Response</title>
<polygon fill="none" stroke="#000000" points="150.1316,-69.4834 80.8199,-69.4834 80.8199,-.1716 150.1316,-.1716 150.1316,-69.4834"/>
<polyline fill="none" stroke="#000000" points="92.8199,-69.4834 80.8199,-57.4834 "/>
<polyline fill="none" stroke="#000000" points="80.8199,-12.1716 92.8199,-.1716 "/>
<polyline fill="none" stroke="#000000" points="138.1316,-.1716 150.1316,-12.1716 "/>
<polyline fill="none" stroke="#000000" points="150.1316,-57.4834 138.1316,-69.4834 "/>
<text text-anchor="middle" x="115.4757" y="-30.6275" font-family="Times,serif" font-size="14.00" fill="#000000">Response</text>
</g>
<!-- recorder&#45;&gt;Response -->
<g id="edge14" class="edge">
<title>recorder&#45;&gt;Response</title>
<path fill="none" stroke="#000000" d="M76.7633,-411.2894C65.1398,-382.5354 44.4757,-324.148 44.4757,-272.455 44.4757,-272.455 44.4757,-272.455 44.4757,-200.455 44.4757,-156.2729 66.0824,-110.4334 85.457,-78.2106"/>
<polygon fill="#000000" stroke="#000000" points="88.5629,-79.8426 90.8427,-69.4959 82.6082,-76.1626 88.5629,-79.8426"/>
</g>
<!-- RealAnswer -->
<g id="node5" class="node">
<title>RealAnswer</title>
<ellipse fill="#d3d3d3" stroke="#000000" cx="178.4757" cy="-272.455" rx="58.5251" ry="18"/>
<text text-anchor="middle" x="178.4757" y="-268.255" font-family="Times,serif" font-size="14.00" fill="#000000">RealAnswer</text>
</g>
<!-- RealQuery&#45;&gt;RealAnswer -->
<g id="edge3" class="edge">
<title>RealQuery&#45;&gt;RealAnswer</title>
<path fill="none" stroke="#000000" d="M176.2328,-326.2864C176.5536,-318.586 176.9352,-309.4293 177.2917,-300.8716"/>
<polygon fill="#000000" stroke="#000000" points="180.7891,-301.0053 177.7085,-290.8683 173.7952,-300.7139 180.7891,-301.0053"/>
</g>
<!-- hasOnResponseHandler -->
<g id="node11" class="node">
<title>hasOnResponseHandler</title>
<polygon fill="none" stroke="#000000" points="219.4757,-218.455 72.8352,-200.455 219.4757,-182.455 366.1163,-200.455 219.4757,-218.455"/>
<polyline fill="none" stroke="#000000" points="84.7458,-201.917 84.7458,-198.993 "/>
<polyline fill="none" stroke="#000000" points="207.5651,-183.917 231.3864,-183.917 "/>
<polyline fill="none" stroke="#000000" points="354.2057,-198.993 354.2057,-201.917 "/>
<polyline fill="none" stroke="#000000" points="231.3864,-216.993 207.5651,-216.993 "/>
<text text-anchor="middle" x="219.4757" y="-196.255" font-family="Times,serif" font-size="14.00" fill="#000000">hasOnResponseHandler</text>
</g>
<!-- RealAnswer&#45;&gt;hasOnResponseHandler -->
<g id="edge10" class="edge">
<title>RealAnswer&#45;&gt;hasOnResponseHandler</title>
<path fill="none" stroke="#000000" d="M188.6106,-254.6572C193.4481,-246.1621 199.3307,-235.8317 204.6575,-226.4773"/>
<polygon fill="#000000" stroke="#000000" points="207.8328,-227.974 209.7398,-217.5522 201.7499,-224.5101 207.8328,-227.974"/>
</g>
<!-- recorderReponse -->
<g id="node6" class="node">
<title>recorderReponse</title>
<ellipse fill="#d3d3d3" stroke="#000000" cx="219.4757" cy="-123.655" rx="76.4053" ry="18"/>
<text text-anchor="middle" x="219.4757" y="-119.455" font-family="Times,serif" font-size="14.00" fill="#000000">recorderReponse</text>
</g>
<!-- recorderReponse&#45;&gt;Response -->
<g id="edge13" class="edge">
<title>recorderReponse&#45;&gt;Response</title>
<path fill="none" stroke="#000000" d="M198.9287,-106.1055C187.241,-96.123 172.1577,-83.2401 158.0355,-71.1782"/>
<polygon fill="#000000" stroke="#000000" points="160.1935,-68.4185 150.3164,-64.5853 155.6472,-73.7413 160.1935,-68.4185"/>
</g>
<!-- Query -->
<g id="node7" class="node">
<title>Query</title>
<polygon fill="none" stroke="#000000" points="163.9576,-899.0277 112.9939,-899.0277 112.9939,-848.0641 163.9576,-848.0641 163.9576,-899.0277"/>
<polyline fill="none" stroke="#000000" points="124.9939,-899.0277 112.9939,-887.0277 "/>
<polyline fill="none" stroke="#000000" points="112.9939,-860.0641 124.9939,-848.0641 "/>
<polyline fill="none" stroke="#000000" points="151.9576,-848.0641 163.9576,-860.0641 "/>
<polyline fill="none" stroke="#000000" points="163.9576,-887.0277 151.9576,-899.0277 "/>
<text text-anchor="middle" x="138.4757" y="-869.3459" font-family="Times,serif" font-size="14.00" fill="#000000">Query</text>
</g>
<!-- index -->
<g id="node8" class="node">
<title>index</title>
<ellipse fill="none" stroke="#000000" cx="138.4757" cy="-794.055" rx="32.4846" ry="18"/>
<text text-anchor="middle" x="138.4757" y="-789.855" font-family="Times,serif" font-size="14.00" fill="#000000">index</text>
</g>
<!-- Query&#45;&gt;index -->
<g id="edge5" class="edge">
<title>Query&#45;&gt;index</title>
<path fill="none" stroke="#000000" d="M138.4757,-847.9569C138.4757,-839.7874 138.4757,-830.7 138.4757,-822.3498"/>
<polygon fill="#000000" stroke="#000000" points="141.9758,-822.2918 138.4757,-812.2918 134.9758,-822.2919 141.9758,-822.2918"/>
</g>
<!-- yamp -->
<g id="node9" class="node">
<title>yamp</title>
<ellipse fill="none" stroke="#000000" cx="138.4757" cy="-722.055" rx="32.4846" ry="18"/>
<text text-anchor="middle" x="138.4757" y="-717.855" font-family="Times,serif" font-size="14.00" fill="#000000">yamp</text>
</g>
<!-- index&#45;&gt;yamp -->
<g id="edge6" class="edge">
<title>index&#45;&gt;yamp</title>
<path fill="none" stroke="#000000" d="M138.4757,-775.8864C138.4757,-768.186 138.4757,-759.0293 138.4757,-750.4716"/>
<polygon fill="#000000" stroke="#000000" points="141.9758,-750.4682 138.4757,-740.4683 134.9758,-750.4683 141.9758,-750.4682"/>
</g>
<!-- hasOnRequestHandler -->
<g id="node10" class="node">
<title>hasOnRequestHandler</title>
<polygon fill="none" stroke="#000000" points="138.4757,-668.055 .0242,-650.055 138.4757,-632.055 276.9273,-650.055 138.4757,-668.055"/>
<polyline fill="none" stroke="#000000" points="11.9241,-651.6021 11.9241,-648.5079 "/>
<polyline fill="none" stroke="#000000" points="126.5759,-633.6021 150.3756,-633.6021 "/>
<polyline fill="none" stroke="#000000" points="265.0274,-648.5079 265.0274,-651.6021 "/>
<polyline fill="none" stroke="#000000" points="150.3756,-666.5079 126.5759,-666.5079 "/>
<text text-anchor="middle" x="138.4757" y="-645.855" font-family="Times,serif" font-size="14.00" fill="#000000">hasOnRequestHandler</text>
</g>
<!-- yamp&#45;&gt;hasOnRequestHandler -->
<g id="edge7" class="edge">
<title>yamp&#45;&gt;hasOnRequestHandler</title>
<path fill="none" stroke="#000000" d="M138.4757,-703.8864C138.4757,-696.186 138.4757,-687.0293 138.4757,-678.4716"/>
<polygon fill="#000000" stroke="#000000" points="141.9758,-678.4682 138.4757,-668.4683 134.9758,-678.4683 141.9758,-678.4682"/>
</g>
<!-- hasOnRequestHandler&#45;&gt;autopilot -->
<g id="edge8" class="edge">
<title>hasOnRequestHandler&#45;&gt;autopilot</title>
<path fill="none" stroke="#000000" d="M128.4888,-633.0106C122.7842,-623.2747 115.506,-610.8534 109.0648,-599.8603"/>
<polygon fill="#000000" stroke="#000000" points="111.9792,-597.911 103.9039,-591.0524 105.9396,-601.4498 111.9792,-597.911"/>
</g>
<!-- hasOnRequestHandler&#45;&gt;RealQuery -->
<g id="edge9" class="edge">
<title>hasOnRequestHandler&#45;&gt;RealQuery</title>
<path fill="none" stroke="#000000" d="M153.9384,-633.9638C156.1579,-630.8767 158.1388,-627.5195 159.4757,-624.055 192.8953,-537.4522 185.3666,-424.5123 179.3788,-372.6863"/>
<polygon fill="#000000" stroke="#000000" points="182.8315,-372.0857 178.1398,-362.5863 175.8836,-372.9381 182.8315,-372.0857"/>
</g>
<!-- hasOnResponseHandler&#45;&gt;recorderReponse -->
<g id="edge11" class="edge">
<title>hasOnResponseHandler&#45;&gt;recorderReponse</title>
<path fill="none" stroke="#000000" d="M219.4757,-182.2545C219.4757,-173.1682 219.4757,-161.9726 219.4757,-151.8099"/>
<polygon fill="#000000" stroke="#000000" points="222.9758,-151.7248 219.4757,-141.7249 215.9758,-151.7249 222.9758,-151.7248"/>
</g>
<!-- hasOnResponseHandler&#45;&gt;Response -->
<g id="edge12" class="edge">
<title>hasOnResponseHandler&#45;&gt;Response</title>
<path fill="none" stroke="#000000" d="M163.6745,-189.1537C149.1579,-185.1086 136.2412,-180.1265 131.4757,-174.455 109.7827,-148.6375 106.849,-110.001 108.7421,-79.9112"/>
<polygon fill="#000000" stroke="#000000" points="112.2538,-79.914 109.5902,-69.6595 105.2776,-79.3369 112.2538,-79.914"/>
</g>
</g>
</svg>
